# xmcd
#
# Track frame offsets:
#	150
#	23755
#	40901
#	59198
#	76428
#	106361
#	132145
#	148796
#	166916
#	181240
#	200359
#	227947
#	249343
#
# Disc length: 3524 seconds
#
# Revision: 0
# Processed by: cddbd v1.5.2PL0 Copyright (c) Steve Scherf et al.
# Submitted via: dBpowerAMP V4.0
#
DISCID=b20dc20d
DTITLE=Red Beans and Rice - Hot 'n Spicy
DYEAR=2007
DGENRE=Blues
TTITLE0=Strut
TTITLE1=She's Too Young To Know
TTITLE2=Handa Wanda
TTITLE3=Gettin' Old
TTITLE4=Unchain My Heart
TTITLE5=Hopin' For The Best
TTITLE6=She Caught The Katy
TTITLE7=Both Sides Of The Fence
TTITLE8=Rad Gumbo
TTITLE9=Voodoo
TTITLE10=Congo Square
TTITLE11=Only In It For The Money
TTITLE12=I'm Not Going To Stand In Your Way
EXTD=
EXTT0=
EXTT1=
EXTT2=
EXTT3=
EXTT4=
EXTT5=
EXTT6=
EXTT7=
EXTT8=
EXTT9=
EXTT10=
EXTT11=
EXTT12=
PLAYORDER=
